<svg width="24" height="24" viewBox="0 0 24 24" fill="none" xmlns="http://www.w3.org/2000/svg">
<path d="M3.47806 2.40498C3.3482 2.36732 3.21057 2.36547 3.07975 2.39962C2.94892 2.43377 2.82976 2.50265 2.73487 2.59897C2.63998 2.69529 2.5729 2.81547 2.54072 2.9468C2.50854 3.07812 2.51246 3.2157 2.55206 3.34498L4.98406 11.25H13.5001C13.699 11.25 13.8897 11.329 14.0304 11.4697C14.171 11.6103 14.2501 11.8011 14.2501 12C14.2501 12.1989 14.171 12.3897 14.0304 12.5303C13.8897 12.671 13.699 12.75 13.5001 12.75H4.98406L2.55206 20.655C2.51246 20.7843 2.50854 20.9218 2.54072 21.0532C2.5729 21.1845 2.63998 21.3047 2.73487 21.401C2.82976 21.4973 2.94892 21.5662 3.07975 21.6003C3.21057 21.6345 3.3482 21.6326 3.47806 21.595C10.093 19.6713 16.331 16.6323 21.9231 12.609C22.0197 12.5395 22.0984 12.4481 22.1527 12.3422C22.207 12.2363 22.2353 12.119 22.2353 12C22.2353 11.881 22.207 11.7637 22.1527 11.6578C22.0984 11.5519 22.0197 11.4604 21.9231 11.391C16.331 7.36763 10.093 4.32863 3.47806 2.40498Z" fill="#333333"/>
</svg>
