<svg width="33" height="33" viewBox="0 0 33 33" fill="none" xmlns="http://www.w3.org/2000/svg">
<path d="M25.3509 28.7887H7.64917C6.73749 28.7887 5.86315 28.4265 5.21849 27.7818C4.57383 27.1372 4.21167 26.2628 4.21167 25.3512V7.64941C4.21167 6.73773 4.57383 5.86339 5.21849 5.21873C5.86315 4.57408 6.73749 4.21191 7.64917 4.21191H25.3509C26.2626 4.21191 27.1369 4.57408 27.7816 5.21873C28.4262 5.86339 28.7884 6.73773 28.7884 7.64941V25.3512C28.7884 26.2628 28.4262 27.1372 27.7816 27.7818C27.1369 28.4265 26.2626 28.7887 25.3509 28.7887ZM7.64917 5.58691C7.10216 5.58691 6.57756 5.80421 6.19076 6.19101C5.80397 6.5778 5.58667 7.1024 5.58667 7.64941V25.3512C5.58667 25.8982 5.80397 26.4228 6.19076 26.8096C6.57756 27.1964 7.10216 27.4137 7.64917 27.4137H25.3509C25.8979 27.4137 26.4225 27.1964 26.8093 26.8096C27.1961 26.4228 27.4134 25.8982 27.4134 25.3512V7.64941C27.4134 7.1024 27.1961 6.5778 26.8093 6.19101C26.4225 5.80421 25.8979 5.58691 25.3509 5.58691H7.64917Z" fill="#333333"/>
<path d="M16.5 22.8169C15.2506 22.8156 14.0297 22.4438 12.9915 21.7487C11.9534 21.0535 11.1447 20.0662 10.6676 18.9116C10.1905 17.7569 10.0664 16.4866 10.3111 15.2615C10.5557 14.0363 11.1582 12.9112 12.0422 12.0283C12.9262 11.1454 14.0521 10.5445 15.2776 10.3014C16.5031 10.0583 17.7732 10.184 18.9272 10.6627C20.0813 11.1413 21.0675 11.9513 21.7613 12.9903C22.4551 14.0294 22.8252 15.2508 22.825 16.5002C22.8228 18.1762 22.1554 19.7829 20.9695 20.9673C19.7836 22.1517 18.176 22.8169 16.5 22.8169ZM16.5 11.5502C15.5229 11.5515 14.5681 11.8424 13.7563 12.3861C12.9445 12.9298 12.312 13.7019 11.9387 14.6048C11.5654 15.5078 11.4681 16.5011 11.659 17.4593C11.85 18.4176 12.3206 19.2977 13.0115 19.9886C13.7024 20.6795 14.5826 21.1501 15.5408 21.3411C16.499 21.532 17.4924 21.4347 18.3953 21.0614C19.2983 20.6882 20.0704 20.0557 20.614 19.2438C21.1577 18.432 21.4486 17.4772 21.45 16.5002C21.45 15.1873 20.9285 13.9283 20.0001 13C19.0718 12.0717 17.8128 11.5502 16.5 11.5502Z" fill="#333333"/>
<path d="M23.65 10.8693C24.4663 10.8693 25.1281 10.2076 25.1281 9.39121C25.1281 8.57486 24.4663 7.91309 23.65 7.91309C22.8337 7.91309 22.1719 8.57486 22.1719 9.39121C22.1719 10.2076 22.8337 10.8693 23.65 10.8693Z" fill="#333333"/>
</svg>
