<svg width="40" height="34" viewBox="0 0 40 34" fill="none" xmlns="http://www.w3.org/2000/svg">
<g clip-path="url(#clip0_131_279)">
<path d="M5.42465 0.440186H0V33.6899H5.42465V0.440186Z" fill="black"/>
<path d="M20.8781 0.957042V33.0463H17.3962V0.957042H20.8781ZM21.8512 0H16.4265V34H21.8512V0Z" fill="black"/>
<path d="M37.1046 1.2205C38.1726 1.2205 39.0405 2.07417 39.0405 3.12458C39.0405 4.17499 38.1726 5.02866 37.1046 5.02866C36.0366 5.02866 35.1687 4.17499 35.1687 3.12458C35.1687 2.07417 36.0366 1.2205 37.1046 1.2205ZM37.1046 0.276794C35.5043 0.276794 34.2058 1.55396 34.2058 3.12791C34.2058 4.70186 35.5043 5.97903 37.1046 5.97903C38.7049 5.97903 40.0034 4.70186 40.0034 3.12791C40.0034 1.55396 38.7049 0.276794 37.1046 0.276794Z" fill="black"/>
<path d="M37.1046 14.9926C38.1726 14.9926 39.0405 15.8462 39.0405 16.8966C39.0405 17.9471 38.1726 18.8007 37.1046 18.8007C36.0366 18.8007 35.1687 17.9471 35.1687 16.8966C35.1687 15.8462 36.0366 14.9926 37.1046 14.9926ZM37.1046 14.0489C35.5043 14.0489 34.2058 15.326 34.2058 16.9C34.2058 18.4739 35.5043 19.7511 37.1046 19.7511C38.7049 19.7511 40.0034 18.4739 40.0034 16.9C40.0034 15.326 38.7049 14.0489 37.1046 14.0489Z" fill="black"/>
<path d="M37.1046 28.4345C38.1726 28.4345 39.0405 29.2882 39.0405 30.3386C39.0405 31.389 38.1726 32.2427 37.1046 32.2427C36.0366 32.2427 35.1687 31.389 35.1687 30.3386C35.1687 29.2882 36.0366 28.4345 37.1046 28.4345ZM37.1046 27.4908C35.5043 27.4908 34.2058 28.768 34.2058 30.3419C34.2058 31.9159 35.5043 33.193 37.1046 33.193C38.7049 33.193 40.0034 31.9159 40.0034 30.3419C40.0034 28.768 38.7049 27.4908 37.1046 27.4908Z" fill="black"/>
</g>
<defs>
<clipPath id="clip0_131_279">
<rect width="40" height="34" fill="white"/>
</clipPath>
</defs>
</svg>
