<svg width="40" height="34" viewBox="0 0 40 34" fill="none" xmlns="http://www.w3.org/2000/svg">
<g clip-path="url(#clip0_134_53)">
<path d="M5.42465 0.440186H0V33.6899H5.42465V0.440186Z" fill="white"/>
<path d="M20.8781 0.957042V33.0463H17.3962V0.957042H20.8781ZM21.8512 0H16.4265V34H21.8512V0Z" fill="white"/>
<path d="M37.1046 1.22044C38.1726 1.22044 39.0405 2.0741 39.0405 3.12452C39.0405 4.17493 38.1726 5.0286 37.1046 5.0286C36.0366 5.0286 35.1687 4.17493 35.1687 3.12452C35.1687 2.0741 36.0366 1.22044 37.1046 1.22044ZM37.1046 0.276733C35.5043 0.276733 34.2058 1.5539 34.2058 3.12785C34.2058 4.7018 35.5043 5.97897 37.1046 5.97897C38.7049 5.97897 40.0034 4.7018 40.0034 3.12785C40.0034 1.5539 38.7049 0.276733 37.1046 0.276733Z" fill="white"/>
<path d="M37.1046 14.9925C38.1726 14.9925 39.0405 15.8462 39.0405 16.8966C39.0405 17.947 38.1726 18.8007 37.1046 18.8007C36.0366 18.8007 35.1687 17.947 35.1687 16.8966C35.1687 15.8462 36.0366 14.9925 37.1046 14.9925ZM37.1046 14.0488C35.5043 14.0488 34.2058 15.326 34.2058 16.8999C34.2058 18.4739 35.5043 19.7511 37.1046 19.7511C38.7049 19.7511 40.0034 18.4739 40.0034 16.8999C40.0034 15.326 38.7049 14.0488 37.1046 14.0488Z" fill="white"/>
<path d="M37.1046 28.4344C38.1726 28.4344 39.0405 29.2881 39.0405 30.3385C39.0405 31.3889 38.1726 32.2426 37.1046 32.2426C36.0366 32.2426 35.1687 31.3889 35.1687 30.3385C35.1687 29.2881 36.0366 28.4344 37.1046 28.4344ZM37.1046 27.4907C35.5043 27.4907 34.2058 28.7679 34.2058 30.3418C34.2058 31.9158 35.5043 33.193 37.1046 33.193C38.7049 33.193 40.0034 31.9158 40.0034 30.3418C40.0034 28.7679 38.7049 27.4907 37.1046 27.4907Z" fill="white"/>
</g>
<defs>
<clipPath id="clip0_134_53">
<rect width="40" height="34" fill="white"/>
</clipPath>
</defs>
</svg>
